<svg xmlns="http://www.w3.org/2000/svg" viewBox="0 0 24 24" fill="#1660a8">
  <path d="M12 2.8a9.2 9.2 0 0 0-2.9 17.93c.46.08.63-.2.63-.44v-1.74c-2.56.56-3.1-1.09-3.1-1.09-.42-1.07-1.02-1.35-1.02-1.35-.83-.57.06-.56.06-.56.92.06 1.4.94 1.4.94.82 1.4 2.14 1 2.66.77.08-.6.32-1 .58-1.23-2.04-.23-4.19-1.02-4.19-4.55 0-1 .36-1.83.94-2.47-.09-.23-.41-1.17.09-2.44 0 0 .77-.25 2.52.94A8.7 8.7 0 0 1 12 7.23c.78 0 1.56.1 2.3.31 1.75-1.19 2.51-.94 2.51-.94.5 1.27.18 2.21.09 2.44.59.64.94 1.46.94 2.47 0 3.54-2.15 4.31-4.2 4.54.33.28.62.82.62 1.66v2.46c0 .24.17.52.64.44A9.2 9.2 0 0 0 12 2.8Z"/>
</svg>
